<svg width="465" height="347" viewBox="0 0 465 347" fill="none" xmlns="http://www.w3.org/2000/svg">
<path d="M464.564 304.195H0V304.428H464.564V304.195Z" fill="#EBEBEB"/>
<path d="M418.015 319.146H397.871V319.379H418.015V319.146Z" fill="#EBEBEB"/>
<path d="M320.243 314.332H288.551V314.564H320.243V314.332Z" fill="#EBEBEB"/>
<path d="M409.857 310.523H368.482V310.756H409.857V310.523Z" fill="#EBEBEB"/>
<path d="M160.759 315.205H150.408V315.437H160.759V315.205Z" fill="#EBEBEB"/>
<path d="M142.128 315.205H106.459V315.437H142.128V315.205Z" fill="#EBEBEB"/>
<path d="M87.3482 311.285H61.6113V311.517H87.3482V311.285Z" fill="#EBEBEB"/>
<path d="M220.203 262.758H40.798C39.3925 262.755 38.0455 262.195 37.0526 261.2C36.0596 260.206 35.502 258.858 35.502 257.452V5.25887C35.5142 3.86148 36.0773 2.52535 37.0689 1.5407C38.0605 0.556045 39.4006 0.0023938 40.798 0H220.203C221.611 0 222.96 0.558953 223.955 1.55389C224.95 2.54884 225.509 3.89827 225.509 5.30533V257.452C225.509 258.859 224.95 260.209 223.955 261.204C222.96 262.199 221.611 262.758 220.203 262.758ZM40.798 0.185826C39.4541 0.188288 38.1662 0.723852 37.2168 1.67497C36.2674 2.62608 35.7342 3.91502 35.7342 5.25887V257.452C35.7342 258.796 36.2674 260.085 37.2168 261.036C38.1662 261.987 39.4541 262.523 40.798 262.525H220.203C221.548 262.523 222.837 261.988 223.788 261.037C224.739 260.086 225.274 258.797 225.277 257.452V5.25887C225.274 3.91417 224.739 2.62525 223.788 1.6744C222.837 0.72355 221.548 0.188283 220.203 0.185826H40.798Z" fill="#EBEBEB"/>
<path d="M421.183 262.758H241.768C240.362 262.755 239.014 262.195 238.02 261.201C237.025 260.207 236.465 258.859 236.463 257.452V5.25887C236.478 3.86064 237.043 2.52451 238.036 1.54012C239.029 0.55572 240.37 0.00236769 241.768 0H421.183C422.579 0.00483565 423.917 0.559567 424.906 1.54396C425.896 2.52835 426.458 3.86309 426.47 5.25887V257.452C426.47 258.856 425.913 260.203 424.922 261.197C423.932 262.192 422.587 262.753 421.183 262.758ZM241.768 0.185826C240.424 0.188283 239.135 0.72355 238.184 1.6744C237.233 2.62525 236.698 3.91417 236.695 5.25887V257.452C236.698 258.797 237.233 260.086 238.184 261.037C239.135 261.988 240.424 262.523 241.768 262.525H421.183C422.528 262.523 423.817 261.988 424.767 261.037C425.718 260.086 426.254 258.797 426.256 257.452V5.25887C426.254 3.91417 425.718 2.62525 424.767 1.6744C423.817 0.72355 422.528 0.188283 421.183 0.185826H241.768Z" fill="#EBEBEB"/>
<path d="M106.851 111.153C112.003 111.153 116.945 109.106 120.588 105.463C124.232 101.819 126.279 96.8776 126.279 91.725C126.279 86.5723 124.232 81.6307 120.588 77.9872C116.945 74.3438 112.003 72.2969 106.851 72.2969H104.463V111.153H106.851Z" fill="#E0E0E0"/>
<path d="M104.444 111.153C115.174 111.153 123.872 102.455 123.872 91.725C123.872 80.9951 115.174 72.2969 104.444 72.2969C93.7139 72.2969 85.0156 80.9951 85.0156 91.725C85.0156 102.455 93.7139 111.153 104.444 111.153Z" fill="white"/>
<path d="M103.551 94.1568C96.651 94.1568 90.0338 91.4159 85.155 86.537C80.2761 81.6582 77.5352 75.041 77.5352 68.1412V52.6155C77.5352 51.9674 77.7926 51.3459 78.2509 50.8876C78.7091 50.4293 79.3307 50.1719 79.9788 50.1719C80.6269 50.1719 81.2484 50.4293 81.7067 50.8876C82.1649 51.3459 82.4224 51.9674 82.4224 52.6155V68.1505C82.4273 73.751 84.6536 79.1208 88.6129 83.0818C92.5722 87.0428 97.941 89.2715 103.541 89.2789C103.874 89.2583 104.208 89.3062 104.522 89.4194C104.836 89.5327 105.123 89.709 105.366 89.9375C105.609 90.166 105.803 90.4419 105.935 90.7481C106.067 91.0542 106.136 91.3843 106.136 91.7179C106.136 92.0515 106.067 92.3815 105.935 92.6877C105.803 92.9939 105.609 93.2697 105.366 93.4982C105.123 93.7267 104.836 93.903 104.522 94.0163C104.208 94.1296 103.874 94.1774 103.541 94.1568H103.551Z" fill="#E0E0E0"/>
<path d="M58.3776 66.2941H101.601C102.292 66.2942 102.974 66.1356 103.594 65.8306C104.215 65.5255 104.757 65.0821 105.178 64.5346C105.6 63.987 105.891 63.3499 106.028 62.6723C106.165 61.9947 106.144 61.2948 105.968 60.6264L102.205 46.4572C101.951 45.4946 101.386 44.643 100.598 44.0347C99.8095 43.4264 98.8425 43.0956 97.847 43.0938H62.1313C61.1346 43.0952 60.1662 43.4256 59.3766 44.0338C58.587 44.642 58.0202 45.4939 57.7644 46.4572L54.0479 60.6078C53.867 61.2745 53.8418 61.9738 53.9742 62.6518C54.1067 63.3298 54.3932 63.9682 54.8117 64.5178C55.2301 65.0674 55.7694 65.5134 56.3877 65.8214C57.006 66.1294 57.6868 66.2911 58.3776 66.2941Z" fill="white"/>
<path d="M381.202 111.153C386.355 111.153 391.297 109.106 394.94 105.463C398.584 101.819 400.63 96.8776 400.63 91.725C400.63 86.5723 398.584 81.6307 394.94 77.9872C391.297 74.3438 386.355 72.2969 381.202 72.2969H378.814V111.153H381.202Z" fill="#E0E0E0"/>
<path d="M378.815 111.153C389.545 111.153 398.243 102.455 398.243 91.725C398.243 80.9951 389.545 72.2969 378.815 72.2969C368.085 72.2969 359.387 80.9951 359.387 91.725C359.387 102.455 368.085 111.153 378.815 111.153Z" fill="white"/>
<path d="M377.924 94.1568C371.024 94.1568 364.407 91.4159 359.528 86.537C354.649 81.6582 351.908 75.041 351.908 68.1412V52.6155C351.908 51.9674 352.166 51.3459 352.624 50.8876C353.082 50.4293 353.704 50.1719 354.352 50.1719C355 50.1719 355.621 50.4293 356.08 50.8876C356.538 51.3459 356.795 51.9674 356.795 52.6155V68.1505C356.8 73.751 359.027 79.1208 362.986 83.0818C366.945 87.0428 372.314 89.2715 377.915 89.2789C378.247 89.2583 378.581 89.3062 378.895 89.4194C379.209 89.5327 379.496 89.709 379.739 89.9375C379.982 90.166 380.176 90.4419 380.308 90.7481C380.44 91.0542 380.509 91.3843 380.509 91.7179C380.509 92.0515 380.44 92.3815 380.308 92.6877C380.176 92.9939 379.982 93.2697 379.739 93.4982C379.496 93.7267 379.209 93.903 378.895 94.0163C378.581 94.1296 378.247 94.1774 377.915 94.1568H377.924Z" fill="#E0E0E0"/>
<path d="M332.75 66.2931H375.973C376.664 66.2932 377.346 66.1346 377.966 65.8296C378.587 65.5245 379.129 65.0811 379.55 64.5336C379.972 63.986 380.263 63.3489 380.4 62.6713C380.536 61.9937 380.516 61.2938 380.34 60.6254L376.623 46.4748C376.369 45.5122 375.804 44.6605 375.016 44.0523C374.228 43.444 373.261 43.1132 372.265 43.1113H336.503C335.507 43.1127 334.538 43.4432 333.749 44.0514C332.959 44.6596 332.392 45.5115 332.136 46.4748L328.42 60.6254C328.242 61.2909 328.22 61.9882 328.354 62.6637C328.488 63.3393 328.775 63.9752 329.193 64.5225C329.611 65.0698 330.149 65.514 330.766 65.8209C331.382 66.1278 332.061 66.2894 332.75 66.2931Z" fill="white"/>
<path d="M124.485 242.373H138.617V187.619H124.485V242.373Z" fill="white"/>
<path d="M86.1758 242.365H133.069L140.149 178.283H93.2557L86.1758 242.365Z" fill="white"/>
<path d="M81.0938 242.365H129.539L136.618 178.283H88.183L81.0938 242.365Z" fill="white"/>
<path d="M126.037 237.318L132.002 183.336H91.6779L85.7129 237.318H126.037Z" fill="white"/>
<path d="M117.711 224.226L117.999 222.061C119.495 208.515 111.04 196.445 100.058 196.445L99.8067 198.647C98.3108 212.185 106.766 224.254 117.757 224.254L117.711 224.226Z" fill="white"/>
<path d="M54.9023 304.195H96.5645L96.5645 242.362H54.9023L54.9023 304.195Z" fill="white"/>
<path d="M59.0829 304.196H54.8926V292.275H63.4777L59.0829 304.196Z" fill="white"/>
<path d="M171.666 304.195H213.328V242.362H171.666V304.195Z" fill="white"/>
<path d="M54.892 296.885H175.316V242.373H54.892V296.885Z" fill="white"/>
<path d="M171.127 304.196H175.318V292.275H166.732L171.127 304.196Z" fill="white"/>
<path d="M58.1459 267.775H172.066V245.774H58.1459V267.775Z" fill="white"/>
<path d="M107.51 260.156H122.701C125.967 260.157 129.199 259.492 132.199 258.201C135.2 256.91 137.905 255.021 140.15 252.648H90.0605C92.3064 255.02 95.012 256.908 98.012 258.199C101.012 259.49 104.244 260.156 107.51 260.156Z" fill="white"/>
<path d="M58.1459 293.326H172.066V271.324H58.1459V293.326Z" fill="white"/>
<path d="M107.51 285.669H122.701C125.967 285.671 129.199 285.006 132.199 283.715C135.2 282.424 137.905 280.535 140.15 278.162H90.0605C92.3064 280.533 95.012 282.422 98.012 283.713C101.012 285.003 104.244 285.669 107.51 285.669Z" fill="white"/>
<path d="M167.69 239.846H168.768C168.768 237.626 168.768 232.004 168.879 219.117C169.075 195.75 169.446 194.328 169.446 194.328L166.882 205.115C165.256 217.055 167.356 229.059 167.69 239.846Z" fill="white"/>
<path d="M165.562 203.479C161.846 199.084 153.995 197.802 145.93 196.706C142.762 196.278 154.246 203.516 159.867 208.654C164.234 212.649 167.021 213.755 168.229 217.732C168.842 212.77 168.74 207.298 165.562 203.479Z" fill="white"/>
<path d="M170.459 211.358C174.176 206.964 182.027 205.691 190.092 204.594C193.26 204.167 181.729 211.405 176.155 216.543C171.788 220.538 169 221.644 167.792 225.62C167.179 220.659 167.244 215.149 170.459 211.358Z" fill="white"/>
<path d="M168.879 193.258C171.667 187.999 178.598 183.038 186.412 181.179C189.478 180.445 179.304 190.879 175.439 197.616C172.438 202.837 168.461 208.988 167.839 213.411C166.909 204.696 166.11 198.545 168.879 193.258Z" fill="white"/>
<path d="M168.544 242.364C165.255 242.364 162.532 240.72 162.337 238.601L161.789 234.996H175.308L174.75 238.601C174.565 240.72 171.889 242.364 168.544 242.364Z" fill="white"/>
<path d="M176.181 236.381H160.915L160.479 232.357H176.617L176.181 236.381Z" fill="white"/>
<path d="M157.525 159.549L306.381 159.549V23.7752L157.525 23.7752L157.525 159.549Z" fill="white"/>
<path d="M154.18 159.549L304.922 159.549V23.7752L154.18 23.7752L154.18 159.549Z" fill="white"/>
<path d="M298.9 153.475V29.8633L160.181 29.8633V153.475H298.9Z" fill="#FAFAFA"/>
<path d="M281.889 153.475L227.293 29.8633H208.748L263.344 153.475H281.889Z" fill="white"/>
<path d="M258.084 153.475L203.489 29.8633H190.723L245.318 153.475H258.084Z" fill="white"/>
<path d="M211.693 153.465V29.8535H204.52V153.465H211.693Z" fill="white"/>
<path d="M259.375 153.465V29.8535H252.202V153.465H259.375Z" fill="white"/>
<path d="M210.4 157.33V25.3379H201.332V157.33H210.4Z" fill="white"/>
<path d="M258.084 157.33V25.3379H249.016V157.33H258.084Z" fill="white"/>
<path d="M160.832 153.475V29.8633H160.191V153.475H160.832Z" fill="white"/>
<path d="M151.652 15.9531H312.911C313.117 15.9555 313.315 16.0385 313.46 16.1844C313.606 16.3302 313.689 16.5274 313.692 16.7336C313.689 16.939 313.606 17.1351 313.46 17.2795C313.314 17.4238 313.117 17.5048 312.911 17.5048H151.652C151.446 17.5048 151.249 17.4238 151.103 17.2795C150.957 17.1351 150.874 16.939 150.871 16.7336C150.874 16.5274 150.957 16.3302 151.102 16.1844C151.248 16.0385 151.445 15.9555 151.652 15.9531Z" fill="white"/>
<path d="M306.38 21.0729C306.657 21.0705 306.922 20.9588 307.116 20.7622C307.311 20.5655 307.421 20.2999 307.421 20.023V17.7745C307.422 17.6371 307.396 17.5008 307.344 17.3734C307.292 17.2461 307.216 17.1303 307.119 17.0327C307.022 16.9351 306.907 16.8576 306.78 16.8047C306.654 16.7518 306.517 16.7246 306.38 16.7246C306.103 16.7246 305.838 16.8339 305.641 17.0288C305.444 17.2237 305.333 17.4884 305.33 17.7652V20.0137C305.33 20.293 305.44 20.5611 305.637 20.7594C305.834 20.9578 306.101 21.0705 306.38 21.0729Z" fill="white"/>
<path d="M163.341 21.0729C163.619 21.0705 163.885 20.9591 164.081 20.7627C164.278 20.5664 164.389 20.3007 164.391 20.023V17.7745C164.391 17.4961 164.281 17.229 164.084 17.0321C163.887 16.8352 163.62 16.7246 163.341 16.7246C163.065 16.7246 162.801 16.8342 162.606 17.0294C162.41 17.2246 162.301 17.4892 162.301 17.7652V20.0137C162.3 20.1516 162.326 20.2884 162.377 20.4162C162.429 20.5441 162.505 20.6605 162.602 20.7589C162.698 20.8572 162.813 20.9356 162.94 20.9895C163.067 21.0434 163.204 21.0717 163.341 21.0729Z" fill="white"/>
<path opacity="0.6" d="M151.894 123.055L302.533 123.055V16.7252L151.894 16.7252V123.055Z" fill="white"/>
<path d="M316.172 190.443H290.194C287.433 190.443 285.195 192.681 285.195 195.442V207.465C285.195 210.226 287.433 212.464 290.194 212.464H316.172C318.933 212.464 321.171 210.226 321.171 207.465V195.442C321.171 192.681 318.933 190.443 316.172 190.443Z" fill="#FAFAFA"/>
<path d="M319.489 186.373H286.877C285.948 186.373 285.195 187.126 285.195 188.055V189.411C285.195 190.34 285.948 191.093 286.877 191.093H319.489C320.418 191.093 321.171 190.34 321.171 189.411V188.055C321.171 187.126 320.418 186.373 319.489 186.373Z" fill="white"/>
<path d="M285.727 236.928C285.727 236.928 286.2 252.416 304.244 252.416C322.288 252.416 322.762 236.928 322.762 236.928H285.727Z" fill="white"/>
<path d="M326.867 236.928C326.867 236.928 327.341 252.416 345.385 252.416C363.428 252.416 363.902 236.928 363.902 236.928H326.867Z" fill="white"/>
<path d="M354.964 180.475H319.286C315.488 180.475 312.41 183.553 312.41 187.35V205.598C312.41 209.396 315.488 212.474 319.286 212.474H354.964C358.762 212.474 361.84 209.396 361.84 205.598V187.35C361.84 183.553 358.762 180.475 354.964 180.475Z" fill="white"/>
<path d="M359.536 174.881H314.714C313.442 174.881 312.41 175.912 312.41 177.185V179.062C312.41 180.335 313.442 181.366 314.714 181.366H359.536C360.808 181.366 361.84 180.335 361.84 179.062V177.185C361.84 175.912 360.808 174.881 359.536 174.881Z" fill="white"/>
<path d="M272.134 304.195H276.816V227.412H272.134V304.195Z" fill="white"/>
<path d="M407.348 212.465H381.992V227.405H407.348V212.465Z" fill="white"/>
<path d="M255.92 227.414L381.984 227.414V212.474L255.92 212.474V227.414Z" fill="white"/>
<path d="M407.348 252.369H381.992V267.31H407.348V252.369Z" fill="white"/>
<path d="M255.92 267.309H381.984V252.368L255.92 252.368V267.309Z" fill="white"/>
<path d="M398.196 304.195H402.879V227.412H398.196V304.195Z" fill="white"/>
<path d="M377.309 304.195H381.992V227.412H377.309V304.195Z" fill="white"/>
<path d="M255.919 304.195H260.602V227.412H255.919V304.195Z" fill="white"/>
<path d="M232.282 346.155C331.775 346.155 412.43 341.446 412.43 335.637C412.43 329.828 331.775 325.119 232.282 325.119C132.788 325.119 52.1328 329.828 52.1328 335.637C52.1328 341.446 132.788 346.155 232.282 346.155Z" fill="white"/>
<path d="M241.955 288.496H123.426C121.52 288.469 119.694 287.722 118.316 286.406C116.937 285.089 116.107 283.3 115.993 281.397L105.363 75.5487C105.304 74.6331 105.435 73.7151 105.748 72.8525C106.06 71.9898 106.547 71.2009 107.179 70.5353C107.81 69.8698 108.573 69.3418 109.418 68.9846C110.263 68.6274 111.173 68.4486 112.09 68.4595H230.619C232.524 68.4841 234.35 69.2288 235.728 70.5438C237.107 71.8588 237.937 73.6468 238.052 75.5487L248.663 281.397C248.722 282.312 248.591 283.228 248.28 284.09C247.969 284.952 247.483 285.741 246.854 286.407C246.225 287.073 245.465 287.602 244.622 287.961C243.779 288.321 242.871 288.503 241.955 288.496Z" fill="#3B79ED"/>
<path opacity="0.8" d="M241.955 288.496H123.426C121.52 288.469 119.694 287.722 118.316 286.406C116.937 285.089 116.107 283.3 115.993 281.397L105.363 75.5487C105.304 74.6331 105.435 73.7151 105.748 72.8525C106.06 71.9898 106.547 71.2009 107.179 70.5353C107.81 69.8698 108.573 69.3418 109.418 68.9846C110.263 68.6274 111.173 68.4486 112.09 68.4595H230.619C232.524 68.4841 234.35 69.2288 235.728 70.5438C237.107 71.8588 237.937 73.6468 238.052 75.5487L248.663 281.397C248.722 282.312 248.591 283.228 248.28 284.09C247.969 284.952 247.483 285.741 246.854 286.407C246.225 287.073 245.465 287.602 244.622 287.961C243.779 288.321 242.871 288.503 241.955 288.496Z" fill="white"/>
<path d="M218.921 61.75H205.811V62.6791H218.921V61.75Z" fill="#3B79ED"/>
<path d="M201.268 61.75H196.465V62.6791H201.268V61.75Z" fill="#3B79ED"/>
<path d="M247.055 275.431H133.701C131.876 275.413 130.125 274.705 128.801 273.448C127.477 272.191 126.678 270.48 126.565 268.658L116.419 71.7753C116.363 70.899 116.488 70.0206 116.787 69.195C117.086 68.3694 117.553 67.6145 118.157 66.9777C118.762 66.3409 119.492 65.8358 120.301 65.4942C121.109 65.1527 121.98 64.9819 122.858 64.9927H236.212C238.037 65.0128 239.787 65.7237 241.109 66.9822C242.432 68.2406 243.228 69.9532 243.338 71.7753L253.484 268.658C253.541 269.533 253.416 270.41 253.117 271.234C252.819 272.059 252.353 272.813 251.749 273.449C251.145 274.085 250.417 274.589 249.609 274.93C248.801 275.271 247.932 275.442 247.055 275.431Z" fill="#3B79ED"/>
<path d="M247.055 270.906H133.701C133.036 270.883 132.403 270.617 131.922 270.158C131.44 269.699 131.145 269.079 131.09 268.416L120.935 71.5428C120.912 71.2809 120.945 71.0171 121.031 70.7689C121.118 70.5206 121.256 70.2935 121.437 70.1026C121.618 69.9122 121.837 69.7623 122.081 69.663C122.324 69.5637 122.586 69.5172 122.849 69.5266H236.203C236.866 69.5516 237.497 69.8189 237.976 70.2777C238.455 70.7366 238.75 71.3552 238.804 72.0166L249.006 268.89C249.028 269.151 248.995 269.413 248.909 269.661C248.823 269.908 248.685 270.134 248.505 270.325C248.325 270.515 248.107 270.665 247.865 270.765C247.623 270.866 247.363 270.913 247.101 270.906H247.055ZM122.849 69.7588C122.618 69.7514 122.388 69.7921 122.173 69.8785C121.959 69.9649 121.765 70.095 121.604 70.2606C121.449 70.4322 121.33 70.6335 121.255 70.8523C121.18 71.071 121.15 71.3028 121.167 71.5335L131.313 268.407C131.365 269.01 131.635 269.573 132.073 269.99C132.511 270.408 133.087 270.651 133.692 270.674H247.046C247.275 270.683 247.504 270.643 247.718 270.556C247.931 270.47 248.123 270.339 248.281 270.172C248.44 270.003 248.561 269.802 248.637 269.583C248.712 269.363 248.74 269.13 248.718 268.899L238.581 72.0259C238.532 71.4238 238.263 70.8606 237.827 70.4429C237.39 70.0251 236.816 69.7818 236.212 69.7588H122.849Z" fill="white"/>
<path opacity="0.3" d="M207.406 141.28C220.299 128.049 219.46 106.321 205.531 92.7479C191.603 79.1747 169.86 78.8967 156.967 92.1268C144.075 105.357 144.914 127.085 158.843 140.658C172.771 154.232 194.514 154.51 207.406 141.28Z" fill="white"/>
<path d="M209.982 116.709C210.242 121.275 209.324 125.831 207.316 129.94C205.142 134.347 201.767 138.05 197.58 140.623C193.393 143.195 188.564 144.533 183.651 144.481C178.558 144.435 173.565 143.072 169.156 140.524C164.746 137.975 161.072 134.329 158.49 129.94C156.083 125.926 154.699 121.383 154.457 116.709C154.228 113.125 154.742 109.532 155.965 106.155C157.188 102.778 159.095 99.69 161.567 97.084C164.039 94.4781 167.022 92.4103 170.329 91.0102C173.637 89.61 177.198 88.9076 180.789 88.9469C188.264 89.0248 195.432 91.9322 200.848 97.0836C206.265 102.235 209.529 109.248 209.982 116.709Z" fill="white"/>
<path d="M207.289 129.939C205.115 134.346 201.74 138.049 197.553 140.622C193.366 143.195 188.538 144.532 183.624 144.48C178.531 144.434 173.538 143.071 169.129 140.523C164.719 137.975 161.045 134.329 158.463 129.939C165.524 125.063 173.909 122.469 182.49 122.506C191.3 122.539 199.913 125.121 207.289 129.939Z" fill="#3B79ED"/>
<path d="M190.795 116.062C195.44 111.295 195.136 103.465 190.116 98.5733C185.096 93.6813 177.26 93.5795 172.616 98.346C167.971 103.113 168.275 110.942 173.295 115.834C178.315 120.727 186.15 120.828 190.795 116.062Z" fill="#3B79ED"/>
<path d="M230.805 198.834H142.045C141.272 198.827 140.531 198.526 139.971 197.993C139.41 197.46 139.073 196.735 139.026 195.963L138.357 182.956C138.334 182.586 138.387 182.215 138.514 181.866C138.641 181.518 138.838 181.2 139.094 180.931C139.349 180.662 139.658 180.449 139.999 180.305C140.341 180.161 140.708 180.089 141.079 180.094H229.839C230.61 180.102 231.35 180.401 231.911 180.932C232.471 181.463 232.809 182.186 232.858 182.956L233.527 195.963C233.552 196.334 233.499 196.706 233.373 197.056C233.247 197.405 233.05 197.725 232.794 197.994C232.538 198.264 232.23 198.478 231.887 198.622C231.545 198.767 231.177 198.839 230.805 198.834Z" fill="white"/>
<path opacity="0.3" d="M203.627 172.912H166.555C165.779 172.906 165.034 172.605 164.471 172.07C163.909 171.535 163.571 170.807 163.526 170.032L163.387 167.244C163.362 166.873 163.415 166.502 163.541 166.152C163.667 165.803 163.864 165.483 164.12 165.214C164.376 164.944 164.684 164.73 165.027 164.585C165.369 164.441 165.737 164.369 166.109 164.373H203.172C203.945 164.381 204.686 164.682 205.247 165.215C205.807 165.747 206.145 166.473 206.192 167.244L206.34 170.032C206.363 170.402 206.31 170.773 206.184 171.121C206.058 171.47 205.862 171.789 205.607 172.059C205.353 172.329 205.046 172.544 204.706 172.691C204.365 172.837 203.998 172.913 203.627 172.912Z" fill="black"/>
<path opacity="0.3" d="M217.416 261.373H161.882C160.567 261.357 159.306 260.844 158.353 259.938C157.401 259.031 156.826 257.798 156.744 256.486L156.418 250.075C156.386 249.445 156.481 248.814 156.7 248.223C156.919 247.631 157.256 247.09 157.691 246.632C158.125 246.175 158.649 245.811 159.229 245.563C159.809 245.314 160.433 245.187 161.064 245.188H216.579C217.894 245.204 219.155 245.716 220.108 246.623C221.061 247.529 221.636 248.762 221.718 250.075L222.043 256.486C222.075 257.114 221.98 257.743 221.763 258.333C221.545 258.924 221.21 259.464 220.777 259.921C220.344 260.378 219.823 260.743 219.245 260.992C218.668 261.242 218.045 261.371 217.416 261.373Z" fill="black"/>
<path d="M232.432 230.293H143.663C142.89 230.283 142.15 229.981 141.59 229.449C141.03 228.917 140.692 228.193 140.643 227.422L139.974 214.414C139.951 214.044 140.005 213.672 140.131 213.324C140.258 212.975 140.455 212.656 140.711 212.386C140.966 212.117 141.274 211.903 141.616 211.758C141.957 211.613 142.325 211.54 142.696 211.543H231.456C232.229 211.551 232.97 211.852 233.531 212.384C234.091 212.917 234.429 213.642 234.476 214.414L235.154 227.422C235.175 227.792 235.121 228.163 234.994 228.511C234.867 228.859 234.669 229.178 234.414 229.447C234.159 229.716 233.852 229.93 233.511 230.075C233.17 230.221 232.802 230.295 232.432 230.293Z" fill="white"/>
<path d="M153.307 189.459C153.333 189.87 153.273 190.281 153.133 190.668C152.992 191.054 152.773 191.408 152.49 191.706C152.206 192.004 151.864 192.241 151.485 192.401C151.107 192.561 150.699 192.641 150.287 192.637C149.433 192.626 148.614 192.293 147.995 191.704C147.376 191.114 147.003 190.312 146.952 189.459C146.925 189.049 146.983 188.638 147.122 188.251C147.262 187.865 147.48 187.511 147.763 187.213C148.045 186.914 148.387 186.677 148.765 186.517C149.144 186.357 149.551 186.277 149.962 186.281C150.818 186.291 151.638 186.625 152.258 187.214C152.878 187.803 153.253 188.605 153.307 189.459Z" fill="#263238"/>
<path d="M163.091 189.459C163.118 189.869 163.059 190.28 162.92 190.667C162.78 191.054 162.562 191.407 162.28 191.706C161.997 192.004 161.656 192.241 161.277 192.401C160.899 192.561 160.491 192.641 160.08 192.637C159.225 192.629 158.405 192.296 157.785 191.706C157.166 191.116 156.794 190.313 156.745 189.459C156.718 189.049 156.776 188.638 156.915 188.251C157.055 187.865 157.273 187.511 157.556 187.213C157.838 186.914 158.18 186.677 158.558 186.517C158.937 186.357 159.344 186.277 159.755 186.281C160.61 186.289 161.431 186.622 162.05 187.212C162.669 187.802 163.041 188.605 163.091 189.459Z" fill="#263238"/>
<path d="M172.818 189.459C172.845 189.869 172.787 190.28 172.647 190.667C172.508 191.054 172.29 191.407 172.007 191.706C171.724 192.004 171.383 192.241 171.005 192.401C170.626 192.561 170.219 192.641 169.808 192.637C168.952 192.627 168.132 192.294 167.512 191.704C166.891 191.115 166.517 190.313 166.463 189.459C166.437 189.048 166.497 188.637 166.637 188.25C166.778 187.864 166.997 187.51 167.28 187.212C167.563 186.914 167.905 186.677 168.284 186.517C168.663 186.357 169.071 186.277 169.482 186.281C170.337 186.292 171.156 186.625 171.775 187.214C172.394 187.804 172.766 188.606 172.818 189.459Z" fill="#263238"/>
<path d="M182.621 189.459C182.646 189.869 182.587 190.279 182.447 190.665C182.307 191.051 182.089 191.404 181.807 191.702C181.524 192.001 181.184 192.237 180.806 192.398C180.428 192.559 180.021 192.64 179.61 192.637C178.755 192.627 177.935 192.294 177.314 191.704C176.694 191.115 176.319 190.313 176.266 189.459C176.24 189.049 176.299 188.638 176.439 188.253C176.579 187.867 176.797 187.514 177.08 187.215C177.362 186.917 177.703 186.681 178.081 186.52C178.458 186.359 178.865 186.278 179.276 186.281C180.131 186.291 180.952 186.624 181.572 187.214C182.192 187.803 182.567 188.605 182.621 189.459Z" fill="#263238"/>
<path d="M154.951 220.9C154.978 221.311 154.92 221.722 154.78 222.108C154.641 222.495 154.423 222.849 154.14 223.147C153.857 223.445 153.516 223.682 153.137 223.842C152.759 224.003 152.351 224.083 151.941 224.078C151.085 224.068 150.265 223.735 149.644 223.146C149.024 222.556 148.649 221.754 148.596 220.9C148.57 220.49 148.629 220.078 148.77 219.692C148.911 219.305 149.13 218.952 149.413 218.654C149.696 218.355 150.038 218.119 150.417 217.959C150.796 217.798 151.204 217.718 151.615 217.723C152.47 217.733 153.289 218.066 153.908 218.656C154.527 219.245 154.899 220.047 154.951 220.9Z" fill="#263238"/>
<path d="M164.715 220.9C164.741 221.31 164.682 221.721 164.541 222.107C164.401 222.493 164.183 222.846 163.901 223.144C163.619 223.442 163.278 223.679 162.9 223.84C162.522 224 162.115 224.081 161.705 224.078C160.849 224.068 160.029 223.735 159.409 223.146C158.788 222.556 158.414 221.754 158.36 220.9C158.333 220.49 158.391 220.079 158.531 219.693C158.67 219.306 158.888 218.952 159.171 218.654C159.454 218.356 159.795 218.119 160.173 217.959C160.552 217.798 160.959 217.718 161.37 217.723C162.226 217.733 163.046 218.066 163.666 218.655C164.287 219.245 164.661 220.047 164.715 220.9Z" fill="#263238"/>
<path d="M174.481 220.9C174.506 221.311 174.447 221.723 174.306 222.109C174.166 222.496 173.947 222.849 173.664 223.147C173.38 223.446 173.038 223.682 172.659 223.842C172.28 224.002 171.872 224.083 171.461 224.078C170.606 224.07 169.786 223.737 169.166 223.148C168.547 222.558 168.175 221.754 168.126 220.9C168.099 220.49 168.157 220.079 168.296 219.693C168.436 219.306 168.654 218.952 168.936 218.654C169.219 218.356 169.56 218.119 169.939 217.959C170.317 217.798 170.725 217.718 171.136 217.723C171.991 217.733 172.812 218.066 173.432 218.655C174.052 219.245 174.427 220.047 174.481 220.9Z" fill="#263238"/>
<path d="M184.238 220.9C184.265 221.311 184.207 221.722 184.067 222.108C183.928 222.495 183.71 222.849 183.427 223.147C183.144 223.445 182.803 223.682 182.425 223.842C182.046 224.003 181.639 224.083 181.228 224.078C180.372 224.068 179.552 223.735 178.932 223.146C178.311 222.556 177.937 221.754 177.883 220.9C177.857 220.49 177.917 220.078 178.057 219.692C178.198 219.305 178.417 218.952 178.7 218.654C178.983 218.355 179.325 218.119 179.704 217.959C180.083 217.798 180.491 217.718 180.902 217.723C181.758 217.731 182.578 218.063 183.197 218.653C183.817 219.243 184.189 220.047 184.238 220.9Z" fill="#263238"/>
<path d="M194.002 220.9C194.029 221.311 193.97 221.722 193.831 222.108C193.691 222.495 193.473 222.849 193.191 223.147C192.908 223.445 192.567 223.682 192.188 223.842C191.81 224.002 191.402 224.083 190.991 224.078C190.136 224.068 189.316 223.735 188.695 223.146C188.075 222.556 187.7 221.754 187.646 220.9C187.621 220.491 187.68 220.08 187.82 219.694C187.96 219.308 188.178 218.955 188.461 218.657C188.743 218.359 189.084 218.122 189.461 217.961C189.839 217.801 190.246 217.719 190.657 217.723C191.512 217.733 192.332 218.066 192.953 218.655C193.573 219.244 193.948 220.046 194.002 220.9Z" fill="#263238"/>
<path d="M203.768 220.9C203.793 221.311 203.734 221.723 203.593 222.109C203.453 222.496 203.234 222.849 202.951 223.147C202.667 223.446 202.325 223.682 201.946 223.842C201.567 224.002 201.16 224.083 200.748 224.078C199.894 224.068 199.075 223.735 198.456 223.145C197.837 222.556 197.464 221.754 197.413 220.9C197.386 220.49 197.444 220.079 197.583 219.693C197.723 219.306 197.941 218.952 198.224 218.654C198.506 218.356 198.848 218.119 199.226 217.959C199.605 217.798 200.012 217.718 200.423 217.723C201.279 217.733 202.099 218.066 202.719 218.655C203.339 219.245 203.714 220.047 203.768 220.9Z" fill="#263238"/>
<path d="M309.401 113C309.633 113.353 309.754 113.539 309.902 113.79L310.32 114.477C310.59 114.942 310.831 115.406 311.064 115.862C311.528 116.791 311.993 117.72 312.364 118.649C313.143 120.494 313.813 122.384 314.371 124.307C315.496 128.108 316.237 132.011 316.583 135.959L316.648 136.693C316.656 136.841 316.656 136.99 316.648 137.139V137.631C316.663 138.277 316.626 138.924 316.536 139.564C316.358 140.75 316.046 141.913 315.607 143.029C314.791 145.024 313.71 146.899 312.392 148.604C309.935 151.751 307.019 154.51 303.742 156.79L301.178 153.789C303.511 151.153 305.578 148.293 307.347 145.25C308.143 143.87 308.767 142.397 309.205 140.865C309.383 140.216 309.486 139.549 309.512 138.876C309.541 138.589 309.541 138.299 309.512 138.012V137.817C309.521 137.731 309.521 137.643 309.512 137.557L309.401 136.906C308.803 133.444 307.958 130.028 306.873 126.686C306.334 125.023 305.675 123.416 305.015 121.845C304.69 121.056 304.318 120.284 303.947 119.541L303.37 118.445L303.082 117.934L302.841 117.525L309.401 113Z" fill="#803E3C"/>
<path d="M300.76 156.808L304.123 163.915L306.79 157.904C306.79 157.904 304.421 152.701 301.215 153.184L300.76 156.808Z" fill="#7F3E3B"/>
<path d="M306.529 164.269L309.205 159.883L306.79 157.904L304.123 163.916L306.529 164.269Z" fill="#7F3E3B"/>
<path d="M291.402 328.185C292.098 328.168 292.789 328.074 293.465 327.906C293.499 327.896 293.53 327.877 293.554 327.851C293.579 327.824 293.596 327.792 293.604 327.758C293.61 327.722 293.605 327.685 293.59 327.652C293.575 327.619 293.551 327.591 293.52 327.572C293.251 327.395 290.891 325.872 289.98 326.28C289.879 326.327 289.793 326.4 289.729 326.492C289.665 326.583 289.627 326.69 289.618 326.801C289.59 326.969 289.603 327.141 289.656 327.303C289.71 327.465 289.802 327.611 289.925 327.73C290.346 328.055 290.871 328.217 291.402 328.185ZM292.935 327.637C291.588 327.916 290.566 327.869 290.148 327.507C290.062 327.422 290 327.317 289.966 327.202C289.931 327.087 289.927 326.965 289.952 326.847C289.952 326.689 290.045 326.643 290.11 326.615C290.612 326.392 291.978 327.051 292.935 327.637Z" fill="#3B79ED"/>
<path d="M293.419 327.906H293.512C293.54 327.888 293.563 327.863 293.579 327.834C293.595 327.805 293.604 327.772 293.605 327.739C293.605 327.646 293.605 325.407 292.75 324.654C292.645 324.56 292.521 324.49 292.386 324.448C292.252 324.406 292.109 324.394 291.97 324.413C291.823 324.414 291.681 324.465 291.568 324.558C291.455 324.651 291.377 324.78 291.347 324.924C291.171 325.806 292.583 327.479 293.326 327.906H293.419ZM292.09 324.757C292.166 324.754 292.241 324.767 292.311 324.794C292.381 324.822 292.445 324.862 292.499 324.915C292.989 325.637 293.243 326.494 293.224 327.367C292.481 326.773 291.598 325.509 291.709 324.98C291.709 324.896 291.775 324.784 292.007 324.757H292.09Z" fill="#3B79ED"/>
<path d="M282.631 324.395C282.653 324.367 282.667 324.335 282.672 324.3C282.677 324.266 282.673 324.231 282.66 324.198C282.646 324.166 282.625 324.138 282.597 324.117C282.569 324.096 282.536 324.083 282.501 324.079C282.12 324.079 278.785 323.921 278.023 324.738V324.794C277.96 324.875 277.919 324.97 277.905 325.071C277.89 325.172 277.902 325.275 277.939 325.37C277.989 325.53 278.077 325.675 278.195 325.793C278.313 325.911 278.458 325.999 278.618 326.048C279.695 326.383 281.6 325.166 282.641 324.413L282.631 324.395ZM278.302 324.98C278.72 324.534 280.56 324.413 281.935 324.432C280.494 325.417 279.296 325.881 278.692 325.695C278.587 325.663 278.491 325.606 278.413 325.528C278.335 325.45 278.278 325.355 278.246 325.249C278.227 325.214 278.217 325.174 278.217 325.133C278.217 325.093 278.227 325.053 278.246 325.017L278.302 324.98Z" fill="#3B79ED"/>
<path d="M282.632 324.394C282.646 324.365 282.654 324.333 282.654 324.301C282.654 324.269 282.646 324.237 282.632 324.208C282.586 324.134 281.545 322.35 280.319 321.978C280.143 321.927 279.958 321.912 279.776 321.934C279.594 321.956 279.418 322.016 279.26 322.108C278.814 322.368 278.786 322.675 278.841 322.87C279.083 323.734 281.452 324.496 282.474 324.487C282.506 324.486 282.538 324.477 282.566 324.461C282.593 324.445 282.616 324.422 282.632 324.394ZM279.297 322.536C279.349 322.484 279.409 322.44 279.473 322.406C279.588 322.332 279.717 322.285 279.852 322.268C279.987 322.25 280.124 322.262 280.254 322.303C281.062 322.517 281.815 323.558 282.158 324.069C281.053 323.948 279.371 323.27 279.232 322.749C279.22 322.71 279.22 322.668 279.231 322.628C279.243 322.589 279.266 322.553 279.297 322.526V322.536Z" fill="#3B79ED"/>
<path d="M292.862 85.7832C291.933 90.4288 289.926 100.473 293.15 103.557C293.15 103.557 291.886 108.203 283.311 108.203C273.871 108.203 278.804 103.557 278.804 103.557C283.952 102.331 283.822 98.503 282.92 94.9165L292.862 85.7832Z" fill="#7F3E3B"/>
<path d="M277.141 74.8948C277.193 74.9033 277.246 74.9033 277.299 74.8948C277.343 74.8731 277.382 74.8428 277.414 74.8057C277.447 74.7687 277.471 74.7256 277.487 74.6789C277.503 74.6322 277.509 74.5829 277.505 74.5338C277.501 74.4848 277.488 74.4369 277.466 74.3931C277.216 73.8631 276.842 73.4008 276.377 73.0451C275.911 72.6894 275.367 72.4507 274.79 72.349C274.693 72.3409 274.597 72.37 274.521 72.4305C274.445 72.4909 274.395 72.5781 274.381 72.6742C274.371 72.7714 274.399 72.8688 274.46 72.9454C274.521 73.0219 274.609 73.0713 274.706 73.083C275.162 73.1705 275.59 73.3653 275.955 73.6513C276.32 73.9373 276.612 74.3062 276.806 74.7276C276.842 74.7825 276.892 74.8269 276.951 74.8563C277.01 74.8857 277.075 74.899 277.141 74.8948Z" fill="#263238"/>
<path d="M274.324 78.9746C273.593 80.3309 272.68 81.5812 271.611 82.6911C271.901 82.9559 272.244 83.1545 272.618 83.2733C272.992 83.392 273.387 83.428 273.776 83.3787L274.324 78.9746Z" fill="#630F0F"/>
<path d="M275.023 77.9235C274.948 78.546 274.549 79.0106 274.149 78.9641C273.75 78.9177 273.471 78.3695 273.545 77.7469C273.62 77.1244 274.019 76.6599 274.474 76.7063C274.93 76.7528 275.088 77.301 275.023 77.9235Z" fill="#263238"/>
<path d="M274.595 76.7636L273.164 76.1875C273.164 76.1875 273.768 77.4139 274.595 76.7636Z" fill="#263238"/>
<path d="M290.837 322.628L283.255 324.393L278.646 306.963L286.228 305.197L290.837 322.628Z" fill="#7F3E3B"/>
<path d="M302.468 327.721H294.691L295.295 309.705H303.081L302.468 327.721Z" fill="#7F3E3B"/>
<path d="M294.069 326.82H302.812C302.963 326.819 303.11 326.873 303.225 326.972C303.34 327.071 303.414 327.209 303.434 327.359L304.429 334.272C304.448 334.447 304.431 334.624 304.377 334.791C304.323 334.959 304.235 335.113 304.117 335.244C303.999 335.375 303.855 335.479 303.694 335.55C303.534 335.621 303.359 335.657 303.183 335.656C300.136 335.61 298.668 335.424 294.821 335.424C292.452 335.424 288.996 335.675 285.734 335.675C282.473 335.675 282.287 332.442 283.653 332.154C289.748 330.834 290.715 329.032 292.768 327.303C293.131 326.994 293.592 326.822 294.069 326.82Z" fill="#263238"/>
<path d="M282.586 323.233L290.53 319.581C290.664 319.517 290.818 319.504 290.962 319.545C291.106 319.586 291.229 319.678 291.31 319.804L295.11 325.676C295.199 325.827 295.255 325.995 295.275 326.17C295.295 326.344 295.278 326.52 295.225 326.687C295.173 326.854 295.086 327.009 294.97 327.14C294.854 327.272 294.712 327.378 294.553 327.451C291.765 328.677 290.353 329.133 286.859 330.74C284.713 331.725 280.356 333.992 277.401 335.386C274.446 336.779 272.923 333.89 274.038 333.054C279.027 329.337 280.458 326.67 281.601 324.245C281.794 323.799 282.144 323.438 282.586 323.233Z" fill="#263238"/>
<path opacity="0.2" d="M278.646 306.963L281.118 316.31L288.607 314.182L286.237 305.197L278.646 306.963Z" fill="black"/>
<path opacity="0.2" d="M303.083 309.705H295.297L294.99 318.996H302.776L303.083 309.705Z" fill="black"/>
<path d="M306.614 105.324C309.847 106.04 313.303 117.663 313.303 117.663L304.161 127.391C304.161 127.391 296.57 116.464 298.121 112.451C299.691 108.26 302.758 104.488 306.614 105.324Z" fill="#263238"/>
<path opacity="0.4" d="M301.446 112.73C299.811 111.234 298.705 111.68 297.953 112.87C297.21 116.326 301.614 123.564 303.388 126.305C304.206 123.034 305.144 116.14 301.446 112.73Z" fill="black"/>
<path d="M265.648 105.557C265.648 105.557 261.931 106.857 269.364 152.524H300.955C300.425 139.665 300.407 131.73 306.53 105.324C302.103 104.411 297.616 103.821 293.104 103.559C288.328 103.215 283.534 103.215 278.758 103.559C272.635 104.126 265.648 105.557 265.648 105.557Z" fill="#263238"/>
<path opacity="0.4" d="M265.359 123.08C265.564 125.3 265.833 127.8 266.186 130.624C268.779 128.292 270.897 121.658 270.117 117.793C268.265 119.296 266.659 121.08 265.359 123.08Z" fill="black"/>
<path d="M268.741 116.14C267.037 120.43 265.117 124.632 262.99 128.729C260.887 132.975 258.399 137.018 255.557 140.808L254.962 141.542L254.665 141.904C254.563 142.025 254.479 142.137 254.321 142.304C253.762 142.914 253.139 143.462 252.463 143.939C251.268 144.767 249.96 145.417 248.579 145.872C246.171 146.641 243.672 147.085 241.146 147.191C236.417 147.379 231.682 146.958 227.061 145.937L227.572 142.035C229.709 142.035 231.948 142.035 234.075 141.858C236.212 141.753 238.341 141.517 240.449 141.152C242.407 140.846 244.322 140.31 246.154 139.554C246.894 139.238 247.585 138.819 248.208 138.309C248.445 138.11 248.66 137.886 248.849 137.64C248.849 137.64 248.96 137.491 249.034 137.389L249.248 137.082L249.685 136.469C252.016 132.868 254.093 129.108 255.901 125.217C257.759 121.269 259.617 117.171 261.318 113.139L268.741 116.14Z" fill="#803E3C"/>
<path d="M265.647 105.557C261.773 106.486 257.016 117.115 257.016 117.115L265.043 128.915C265.043 128.915 275.738 115.452 274.465 111.345C273.164 107.062 270.377 104.404 265.647 105.557Z" fill="#263238"/>
<path d="M229.802 142.629L223.103 139.535L222.434 146.197C222.434 146.197 228.008 147.842 230.796 146.197L229.802 142.629Z" fill="#7F3E3B"/>
<path d="M219.098 138.865L218.457 143.938L222.434 146.196L223.103 139.534L219.098 138.865Z" fill="#7F3E3B"/>
<path d="M296.226 78.3799C294.804 85.9709 294.368 89.2228 290.019 92.6699C283.515 97.8544 274.456 94.4538 273.583 86.5934C272.784 79.5134 275.237 68.2895 283.106 66.1526C284.84 65.6743 286.667 65.6481 288.414 66.0765C290.16 66.5048 291.768 67.3735 293.084 68.5996C294.399 69.8256 295.379 71.3683 295.929 73.0804C296.479 74.7925 296.581 76.617 296.226 78.3799Z" fill="#7F3E3B"/>
<path d="M279.547 79.9778C279.11 83.8523 278.943 93.9147 287.453 94.2306C297.869 94.6116 300.991 85.7105 300.062 82.152C305.488 77.7386 306.268 70.1476 300.173 64.3406C294.078 58.5335 280.662 61.7762 276.945 67.4346C272.234 74.4495 279.547 79.9778 279.547 79.9778Z" fill="#263238"/>
<path d="M289.981 66.5987C289.48 62.5106 289.87 59.6953 293.698 59.6953C297.526 59.6953 302.747 61.0797 304.661 64.9913C306.575 68.903 306.733 75.0259 301.391 74.4034C296.048 73.7809 290.585 71.486 289.981 66.5987Z" fill="#3B79ED"/>
<path d="M295.909 65.6134C294.98 60.7447 299.337 47.0308 309.92 46.1017C314.826 45.6836 317.093 50.961 314.566 51.8344C319.211 51.7786 322.185 57.9202 317.855 58.84C321.274 61.0328 320.429 65.5298 315.551 67.7411C311.918 69.4135 297.163 72.3589 295.909 65.6134Z" fill="#263238"/>
<path d="M307.217 70.844C303.807 70.844 300.249 70.3422 298.037 68.8649C297.419 68.4922 296.898 67.9775 296.519 67.3635C296.139 66.7495 295.911 66.0539 295.854 65.3342C295.851 65.2731 295.872 65.2133 295.911 65.1667C295.951 65.1201 296.007 65.0904 296.067 65.0834C296.098 65.0795 296.129 65.082 296.159 65.0909C296.189 65.0998 296.216 65.1147 296.24 65.1348C296.264 65.1549 296.283 65.1798 296.296 65.2077C296.31 65.2356 296.317 65.2661 296.318 65.2971C296.374 65.9465 296.583 66.5735 296.927 67.1273C297.27 67.681 297.74 68.1459 298.297 68.484C302.506 71.2714 312.234 70.3422 315.263 69.4131C317.883 68.5583 319.658 66.8952 320.011 64.9812C320.121 64.2788 320.034 63.5597 319.761 62.9036C319.487 62.2475 319.036 61.6802 318.459 61.2646C318.437 61.2438 318.42 61.2186 318.407 61.1906C318.395 61.1627 318.389 61.1325 318.389 61.102C318.389 61.0716 318.395 61.0414 318.407 61.0135C318.42 60.9855 318.437 60.9603 318.459 60.9394C318.503 60.8969 318.561 60.873 318.622 60.873C318.683 60.873 318.741 60.8969 318.785 60.9394C319.433 61.4127 319.937 62.0569 320.241 62.8002C320.545 63.5434 320.635 64.3564 320.504 65.1484C320.123 67.2389 318.236 69.0229 315.449 69.9334C312.76 70.6114 309.99 70.9177 307.217 70.844Z" fill="#263238"/>
<path d="M277.179 78.9746C276.313 80.1883 275.957 81.692 276.184 83.165C276.491 85.1161 278.386 85.2462 279.761 84.0012C281.137 82.7562 282.335 80.5077 281.322 78.891C281.097 78.5418 280.787 78.256 280.42 78.0608C280.053 77.8656 279.643 77.7675 279.227 77.7759C278.812 77.7843 278.405 77.8988 278.047 78.1086C277.688 78.3185 277.389 78.6166 277.179 78.9746Z" fill="#7F3E3B"/>
<path d="M277.707 152.525C277.707 152.525 282.223 205.941 286.915 236.045C290.696 260.36 293.688 317.195 293.688 317.195H304.299C304.299 317.195 308.071 262.06 306.157 238.015C301.298 177.157 312.141 172.195 300.982 152.535L277.707 152.525Z" fill="#3B79ED"/>
<path opacity="0.4" d="M291.068 172.715C286.863 177.128 283.469 182.249 281.043 187.841C282.279 199.845 283.747 213.169 285.308 224.839C291.713 208.257 293.698 190.295 291.068 172.715Z" fill="black"/>
<path d="M270.284 152.189C270.284 152.189 260.482 210.529 258.939 236.824C262.786 261.139 278.525 312.539 278.525 312.539L288.179 309.036C288.179 309.036 282.837 252.991 277.03 237.651C290.102 193.638 299.71 182.507 296.913 152.524C290.214 152.524 270.284 152.189 270.284 152.189Z" fill="#3B79ED"/>
<path d="M277.233 315.102L290.278 311.562L289.535 306.359L275.57 310.141L277.233 315.102Z" fill="#263238"/>
<path d="M292.231 317.407H305.749L306.456 312.669L292.156 312.186L292.231 317.407Z" fill="#263238"/>
<path d="M301.447 150.665L302.868 153.499C302.98 153.722 302.72 153.945 302.357 153.945H269.206C268.927 153.945 268.686 153.806 268.667 153.62L268.379 150.833C268.379 150.637 268.611 150.47 268.918 150.47H300.926C301.022 150.457 301.12 150.468 301.211 150.502C301.302 150.536 301.383 150.592 301.447 150.665Z" fill="#3B79ED"/>
<path opacity="0.5" d="M301.447 150.665L302.868 153.499C302.98 153.722 302.72 153.945 302.357 153.945H269.206C268.927 153.945 268.686 153.806 268.667 153.62L268.379 150.833C268.379 150.637 268.611 150.47 268.918 150.47H300.926C301.022 150.457 301.12 150.468 301.211 150.502C301.302 150.536 301.383 150.592 301.447 150.665Z" fill="black"/>
<path d="M297.145 154.234H297.999C298.176 154.234 298.306 154.141 298.297 154.039L297.888 150.322C297.888 150.211 297.73 150.127 297.563 150.127H296.699C296.531 150.127 296.401 150.211 296.411 150.322L296.81 154.039C296.829 154.159 296.977 154.234 297.145 154.234Z" fill="#3B79ED"/>
<path d="M285.642 127.177C285.54 127.175 285.441 127.141 285.359 127.079C285.277 127.017 285.217 126.931 285.187 126.833C282.158 115.628 275.896 106.392 272.858 104.999C272.622 104.854 272.338 104.807 272.068 104.868C272.012 104.898 271.95 104.916 271.887 104.921C271.824 104.926 271.76 104.917 271.7 104.897C271.64 104.876 271.585 104.843 271.538 104.801C271.491 104.758 271.454 104.706 271.428 104.648C271.402 104.59 271.388 104.528 271.387 104.465C271.386 104.401 271.398 104.338 271.422 104.28C271.446 104.221 271.482 104.168 271.528 104.124C271.574 104.08 271.628 104.045 271.687 104.023C271.941 103.93 272.212 103.893 272.482 103.915C272.751 103.938 273.013 104.019 273.248 104.153C276.463 105.677 282.818 114.782 285.996 126.238C288.272 126.238 291.784 125.932 292.639 125.857C293.698 124.594 301.484 114.857 298.576 104.199C298.559 104.141 298.554 104.08 298.562 104.019C298.569 103.959 298.588 103.9 298.619 103.847C298.649 103.794 298.69 103.748 298.738 103.711C298.787 103.674 298.842 103.648 298.901 103.633C299.019 103.601 299.145 103.618 299.251 103.679C299.357 103.74 299.435 103.84 299.468 103.958C302.711 115.814 293.308 126.508 293.206 126.61C293.169 126.655 293.124 126.692 293.073 126.72C293.022 126.747 292.966 126.763 292.908 126.768C292.862 126.768 288.225 127.177 285.642 127.177Z" fill="#3B79ED"/>
<path d="M301.037 133.737C295.973 124.251 293.901 123.582 293 120.534C293.683 118.83 294.658 117.258 295.881 115.888C295.267 115.712 293.948 115.452 293.093 115.294C293.186 114.876 293.288 114.467 293.381 114.067C292.451 113.963 291.51 114.007 290.594 114.197V113.268C289.414 113.012 288.202 112.933 286.998 113.036C287.103 113.476 287.206 113.922 287.305 114.374C286.376 114.55 284.963 114.839 284.285 115.034C285.603 116.526 286.571 118.294 287.119 120.209C284.387 124.901 273.777 155.061 291.04 157.374C308.303 159.688 306.092 143.233 301.037 133.737Z" fill="#3B79ED"/>
<path opacity="0.4" d="M301.037 133.737C295.973 124.251 293.901 123.582 293 120.534C293.683 118.83 294.658 117.258 295.881 115.888C295.267 115.712 293.948 115.452 293.093 115.294C293.186 114.876 293.288 114.467 293.381 114.067C292.451 113.963 291.51 114.007 290.594 114.197V113.268C289.414 113.012 288.202 112.933 286.998 113.036C287.103 113.476 287.206 113.922 287.305 114.374C286.376 114.55 284.963 114.839 284.285 115.034C285.603 116.526 286.571 118.294 287.119 120.209C284.387 124.901 273.777 155.061 291.04 157.374C308.303 159.688 306.092 143.233 301.037 133.737Z" fill="white"/>
<path d="M286.414 119.309C286.306 119.788 286.259 120.278 286.274 120.768C286.274 121.112 287.203 121.344 288.235 121.446C289.266 121.548 293.596 121.716 293.456 121.232C293.317 120.749 293.67 120.09 293.689 119.681C293.707 119.272 291.97 119.253 290.511 119.309C289.052 119.365 286.702 118.789 286.414 119.309Z" fill="#3B79ED"/>
<path d="M276.369 154.234H277.224C277.391 154.234 277.521 154.141 277.512 154.039L277.112 150.322C277.112 150.211 276.954 150.127 276.778 150.127H275.951C275.783 150.127 275.653 150.211 275.663 150.322L276.062 154.039C276.044 154.159 276.192 154.234 276.369 154.234Z" fill="#3B79ED"/>
<path d="M47.2509 337.253C36.2316 325.881 29.7591 279.621 40.502 270.604H95.1791C105.922 279.621 99.4591 325.891 88.4493 337.244L88.1443 337.558L87.7725 337.93C87.4579 338.235 87.1243 338.53 86.8193 338.826L86.5619 339.036C86.2855 339.245 86.0186 339.465 85.7231 339.665C85.2697 340.011 84.7954 340.33 84.3028 340.618C75.2376 345.908 60.5484 345.908 51.4832 340.618C50.9882 340.329 50.5108 340.01 50.0533 339.665C49.7769 339.474 49.5291 339.274 49.2717 339.074L48.9476 338.816C48.6044 338.53 48.2899 338.244 47.9944 337.949L47.5654 337.52L47.2509 337.253Z" fill="#3B79ED"/>
<path opacity="0.6" d="M47.2509 337.253C36.2316 325.881 29.7591 279.621 40.502 270.604H95.1791C105.922 279.621 99.4591 325.891 88.4493 337.244L88.1443 337.558L87.7725 337.93C87.4579 338.235 87.1243 338.53 86.8193 338.826L86.5619 339.036C86.2855 339.245 86.0186 339.465 85.7231 339.665C85.2697 340.011 84.7954 340.33 84.3028 340.618C75.2376 345.908 60.5484 345.908 51.4832 340.618C50.9882 340.329 50.5108 340.01 50.0533 339.665C49.7769 339.474 49.5291 339.274 49.2717 339.074L48.9476 338.816C48.6044 338.53 48.2899 338.244 47.9944 337.949L47.5654 337.52L47.2509 337.253Z" fill="white"/>
<path d="M90.4321 266.973C102.91 274.255 102.91 286.037 90.4321 293.349C77.9544 300.66 57.7364 300.631 45.2587 293.349C32.781 286.066 32.781 274.284 45.2587 266.973C57.7364 259.661 77.9544 259.69 90.4321 266.973Z" fill="#3B79ED"/>
<path opacity="0.8" d="M90.4321 266.973C102.91 274.255 102.91 286.037 90.4321 293.349C77.9544 300.66 57.7364 300.631 45.2587 293.349C32.781 286.066 32.781 274.284 45.2587 266.973C57.7364 259.661 77.9544 259.69 90.4321 266.973Z" fill="white"/>
<path d="M84.437 270.471C93.5975 275.828 93.5975 284.493 84.437 289.85C75.2765 295.208 60.4157 295.198 51.2551 289.85C42.0946 284.503 42.0946 275.828 51.2551 270.471C60.4157 265.114 75.2765 265.124 84.437 270.471Z" fill="#3B79ED"/>
<path opacity="0.6" d="M84.437 270.471C93.5975 275.828 93.5975 284.493 84.437 289.85C75.2765 295.208 60.4157 295.198 51.2551 289.85C42.0946 284.503 42.0946 275.828 51.2551 270.471C60.4157 265.114 75.2765 265.124 84.437 270.471Z" fill="white"/>
<path d="M51.2643 279.669C60.4248 274.321 75.2856 274.321 84.4461 279.669C86.6687 280.882 88.5528 282.632 89.9271 284.759C88.551 286.885 86.6673 288.634 84.4461 289.849C75.2856 295.197 60.4248 295.197 51.2643 289.849C49.043 288.634 47.1594 286.885 45.7832 284.759C47.1575 282.632 49.0416 280.882 51.2643 279.669Z" fill="#455A64"/>
<path d="M73.4944 227.187C71.464 223.517 67.7178 220.695 70.2439 212.44C72.7699 204.185 73.685 192.308 76.0395 189.916C78.394 187.523 82.0162 194.815 83.4079 203.432C84.7996 212.049 83.6748 223.317 73.4944 227.187Z" fill="#3B79ED"/>
<path d="M55.8311 199.933C52.8952 199.037 43.0198 192.24 44.2875 177.113C45.5553 161.985 56.6128 139.622 63.0756 139.841C69.5385 140.061 67.8418 152.119 67.1936 168.028C66.5454 183.938 65.6684 189.266 55.8311 199.933Z" fill="#3B79ED"/>
<path d="M48.1855 213.994C42.4661 215.777 38.148 214.814 34.44 207.245C30.7319 199.677 29.8168 190.287 31.8186 188.991C33.8204 187.695 39.7494 196.178 42.2278 199.705C45.9835 205.072 47.6898 206.406 48.1855 213.994Z" fill="#3B79ED"/>
<path d="M58.0514 247.65C54.7341 246.954 52.8944 246.458 51.2358 241.454C49.5772 236.449 45.8501 230.225 46.1742 228.204C46.4983 226.183 50.8736 228.538 54.6102 232.332C58.3469 236.125 61.7499 244.866 58.0514 247.65Z" fill="#3B79ED"/>
<path d="M39.6731 243.58C35.0023 243.58 32.1903 243.046 28.7492 236.269C25.308 229.492 24.126 217.052 26.938 215.441C29.7501 213.83 32.1903 219.426 36.1176 226.365C40.0449 233.304 42.5138 235.869 39.6731 243.58Z" fill="#3B79ED"/>
<path d="M42.5133 255.2C40.5497 257.106 38.1285 257.364 34.5539 255.114C30.9793 252.864 28.1196 249.109 28.6343 248.022C29.1491 246.935 33.8962 248.975 35.8884 249.852C38.872 251.149 40.9024 250.786 42.5133 255.2Z" fill="#3B79ED"/>
<path d="M89.8896 239.463C94.2077 238.262 97.1723 237.729 98.8595 230.322C100.547 222.915 98.6593 210.562 95.5423 209.685C92.4252 208.808 91.4148 214.823 89.2986 222.515C87.1825 230.208 87.2969 233.144 89.8896 239.463Z" fill="#3B79ED"/>
<path d="M90.6133 251.951C93.6541 253.353 95.4652 253.334 98.0294 249.978C100.594 246.623 101.957 242.095 101.099 241.256C100.241 240.417 96.5042 244.011 94.9409 245.508C92.5674 247.776 90.9946 248.138 90.6133 251.951Z" fill="#3B79ED"/>
<path d="M97.0184 246.995C95.1882 248.015 93.6535 249.549 91.8615 250.655C90.2919 251.573 88.6576 252.376 86.9714 253.057C85.208 253.801 83.4159 254.487 81.6905 255.326C81.2044 255.564 80.7373 255.812 80.194 256.088C83.6923 252.009 87.1525 247.872 89.6023 243.048C91.4438 239.389 92.7289 235.476 93.4152 231.438C94.0144 227.209 94.3329 222.945 94.3685 218.674C94.3685 218.484 94.1206 218.255 94.073 218.541C93.2913 223.679 92.3762 228.817 91.137 233.869C90.168 237.929 88.5592 241.81 86.3709 245.365C84.1206 248.802 81.6263 252.074 78.9071 255.154C77.0007 257.413 75.0942 259.806 73.2736 262.189C71.7419 264.091 70.389 266.13 69.2319 268.28C69.108 265.783 68.9078 263.276 68.6027 260.788C68.0689 256.393 67.2492 252.047 66.315 247.729C66.5049 245.289 67.0046 242.883 67.802 240.57C68.7532 238.029 69.8677 235.551 71.1383 233.154C73.55 228.388 75.9045 223.622 77.1246 218.35C77.4681 216.842 77.7164 215.314 77.8681 213.775C78.1045 212.056 78.2318 210.324 78.2494 208.589C78.2494 208.456 78.1064 208.513 78.0873 208.589C77.8395 209.943 77.7347 211.306 77.4392 212.659C77.1437 214.013 76.7433 215.519 76.362 216.882C75.6096 219.6 74.6863 222.268 73.5977 224.87C71.5101 229.865 68.6123 234.469 66.7058 239.54C66.18 240.887 65.7499 242.27 65.419 243.677C64.8216 241.047 64.2147 238.422 63.5983 235.804C59.8426 219.446 56.2871 202.879 55.8295 186.036C55.6944 181.031 55.8313 176.022 56.2394 171.032C56.4205 168.773 56.6302 166.504 56.9353 164.255C57.2403 162.005 57.6978 159.603 58.1363 157.267C58.1363 157.144 58.0219 157.067 57.9838 157.21C57.3261 159.231 56.8971 161.309 56.3633 163.359C55.8561 165.39 55.4709 167.449 55.2099 169.526C54.6115 173.768 54.2931 178.044 54.2567 182.328C54.2052 190.871 54.8428 199.405 56.1631 207.846C56.9734 213.203 57.9933 218.522 59.0991 223.831C58.8131 223.431 58.5367 223.04 58.2412 222.659C56.8186 220.814 55.2434 219.092 53.5322 217.511C50.3961 214.652 46.7548 212.44 43.428 209.8C41.3166 208.22 39.6058 206.166 38.4331 203.804C38.3759 203.69 38.2806 203.861 38.3092 203.937C39.6342 207.75 42.7417 210.791 45.8683 213.203C47.6032 214.537 49.3857 215.824 51.0538 217.254C52.826 218.777 54.4652 220.448 55.9534 222.249C56.8209 223.288 57.6406 224.375 58.4032 225.499C58.7559 226.014 59.0895 226.548 59.4232 227.082C59.6138 227.387 59.7759 227.663 59.9665 227.911C60.3287 229.582 60.6941 231.244 61.0627 232.896C62.9692 241.18 65.0567 249.435 66.3341 257.833C66.7821 260.74 67.0871 263.676 67.2873 266.612C66.2123 265.269 65.0157 264.027 63.7127 262.904L63.1598 262.446C62.8643 261.913 62.483 261.388 62.2638 260.912C61.7502 259.787 61.317 258.628 60.9674 257.442C60.2334 255.011 59.7663 252.514 59.2516 250.035C58.2984 245.269 56.8399 240.36 53.0937 237.062C53.0461 237.005 52.9794 237.148 53.0175 237.195C56.125 241.008 57.0878 246.041 58.0124 250.779C58.426 253.226 59.0024 255.643 59.7377 258.014C60.0092 258.826 60.3275 259.622 60.691 260.397C58.5557 258.71 56.3442 257.118 54.1423 255.526C50.7775 253.185 47.5855 250.604 44.591 247.805C41.6179 244.883 39.1276 241.508 37.213 237.806C34.7823 233.211 32.6375 228.445 30.6262 223.66C30.5118 223.393 30.3212 223.66 30.3688 223.86C31.4392 227.996 32.7831 232.056 34.3914 236.014C36.0348 239.763 38.2292 243.246 40.902 246.346C44.4575 250.436 48.8138 253.591 53.2081 256.708C52.6457 256.565 52.0929 256.441 51.5591 256.327C49.6526 255.926 47.7461 255.707 45.8397 255.374C44.0375 255.125 42.2564 254.743 40.5112 254.23C38.5094 253.601 36.6411 252.485 34.6202 251.942C34.5058 251.942 34.4772 252.142 34.544 252.19C37.8308 254.47 41.5918 255.976 45.5442 256.594C47.2981 256.908 49.0711 257.118 50.8251 257.461C52.7136 257.909 54.578 258.453 56.411 259.091C56.4678 259.1 56.5257 259.1 56.5826 259.091C57.5358 259.758 58.4318 260.426 59.3278 261.121C61.1589 262.486 62.9035 263.963 64.5515 265.544C65.548 266.469 66.4225 267.516 67.1538 268.662C67.2587 268.833 67.3445 269.005 67.4398 269.176C67.4398 270.082 67.5161 270.978 67.5351 271.883C67.6209 276.726 67.211 281.511 66.9346 286.334C66.8774 287.288 68.4121 287.288 68.5551 286.334C69.1742 282.048 69.4483 277.719 69.3749 273.39C69.3749 272.818 69.3749 272.255 69.3749 271.683C69.3749 271.493 69.4702 271.292 69.5274 271.102C69.9623 269.824 70.5513 268.605 71.2813 267.47C72.498 265.555 73.8252 263.712 75.2563 261.951C75.9712 261.064 76.6956 260.187 77.4296 259.31C77.4874 259.304 77.5429 259.285 77.5917 259.253C79.2245 258.158 80.9141 257.149 82.6533 256.231C84.2738 255.478 85.9419 254.84 87.5624 254.106C91.2161 252.547 94.4736 250.189 97.0947 247.204C97.1709 247.147 97.0756 246.937 97.0184 246.995Z" fill="#3B79ED"/>
<path opacity="0.45" d="M97.0184 246.995C95.1882 248.015 93.6535 249.549 91.8615 250.655C90.2919 251.573 88.6576 252.376 86.9714 253.057C85.208 253.801 83.4159 254.487 81.6905 255.326C81.2044 255.564 80.7373 255.812 80.194 256.088C83.6923 252.009 87.1525 247.872 89.6023 243.048C91.4438 239.389 92.7289 235.476 93.4152 231.438C94.0144 227.209 94.3329 222.945 94.3685 218.674C94.3685 218.484 94.1206 218.255 94.073 218.541C93.2913 223.679 92.3762 228.817 91.137 233.869C90.168 237.929 88.5592 241.81 86.3709 245.365C84.1206 248.802 81.6263 252.074 78.9071 255.154C77.0007 257.413 75.0942 259.806 73.2736 262.189C71.7419 264.091 70.389 266.13 69.2319 268.28C69.108 265.783 68.9078 263.276 68.6027 260.788C68.0689 256.393 67.2492 252.047 66.315 247.729C66.5049 245.289 67.0046 242.883 67.802 240.57C68.7532 238.029 69.8677 235.551 71.1383 233.154C73.55 228.388 75.9045 223.622 77.1246 218.35C77.4681 216.842 77.7164 215.314 77.8681 213.775C78.1045 212.056 78.2318 210.324 78.2494 208.589C78.2494 208.456 78.1064 208.513 78.0873 208.589C77.8395 209.943 77.7347 211.306 77.4392 212.659C77.1437 214.013 76.7433 215.519 76.362 216.882C75.6096 219.6 74.6863 222.268 73.5977 224.87C71.5101 229.865 68.6123 234.469 66.7058 239.54C66.18 240.887 65.7499 242.27 65.419 243.677C64.8216 241.047 64.2147 238.422 63.5983 235.804C59.8426 219.446 56.2871 202.879 55.8295 186.036C55.6944 181.031 55.8313 176.022 56.2394 171.032C56.4205 168.773 56.6302 166.504 56.9353 164.255C57.2403 162.005 57.6978 159.603 58.1363 157.267C58.1363 157.144 58.0219 157.067 57.9838 157.21C57.3261 159.231 56.8971 161.309 56.3633 163.359C55.8561 165.39 55.4709 167.449 55.2099 169.526C54.6115 173.768 54.2931 178.044 54.2567 182.328C54.2052 190.871 54.8428 199.405 56.1631 207.846C56.9734 213.203 57.9933 218.522 59.0991 223.831C58.8131 223.431 58.5367 223.04 58.2412 222.659C56.8186 220.814 55.2434 219.092 53.5322 217.511C50.3961 214.652 46.7548 212.44 43.428 209.8C41.3166 208.22 39.6058 206.166 38.4331 203.804C38.3759 203.69 38.2806 203.861 38.3092 203.937C39.6342 207.75 42.7417 210.791 45.8683 213.203C47.6032 214.537 49.3857 215.824 51.0538 217.254C52.826 218.777 54.4652 220.448 55.9534 222.249C56.8209 223.288 57.6406 224.375 58.4032 225.499C58.7559 226.014 59.0895 226.548 59.4232 227.082C59.6138 227.387 59.7759 227.663 59.9665 227.911C60.3287 229.582 60.6941 231.244 61.0627 232.896C62.9692 241.18 65.0567 249.435 66.3341 257.833C66.7821 260.74 67.0871 263.676 67.2873 266.612C66.2123 265.269 65.0157 264.027 63.7127 262.904L63.1598 262.446C62.8643 261.913 62.483 261.388 62.2638 260.912C61.7502 259.787 61.317 258.628 60.9674 257.442C60.2334 255.011 59.7663 252.514 59.2516 250.035C58.2984 245.269 56.8399 240.36 53.0937 237.062C53.0461 237.005 52.9794 237.148 53.0175 237.195C56.125 241.008 57.0878 246.041 58.0124 250.779C58.426 253.226 59.0024 255.643 59.7377 258.014C60.0092 258.826 60.3275 259.622 60.691 260.397C58.5557 258.71 56.3442 257.118 54.1423 255.526C50.7775 253.185 47.5855 250.604 44.591 247.805C41.6179 244.883 39.1276 241.508 37.213 237.806C34.7823 233.211 32.6375 228.445 30.6262 223.66C30.5118 223.393 30.3212 223.66 30.3688 223.86C31.4392 227.996 32.7831 232.056 34.3914 236.014C36.0348 239.763 38.2292 243.246 40.902 246.346C44.4575 250.436 48.8138 253.591 53.2081 256.708C52.6457 256.565 52.0929 256.441 51.5591 256.327C49.6526 255.926 47.7461 255.707 45.8397 255.374C44.0375 255.125 42.2564 254.743 40.5112 254.23C38.5094 253.601 36.6411 252.485 34.6202 251.942C34.5058 251.942 34.4772 252.142 34.544 252.19C37.8308 254.47 41.5918 255.976 45.5442 256.594C47.2981 256.908 49.0711 257.118 50.8251 257.461C52.7136 257.909 54.578 258.453 56.411 259.091C56.4678 259.1 56.5257 259.1 56.5826 259.091C57.5358 259.758 58.4318 260.426 59.3278 261.121C61.1589 262.486 62.9035 263.963 64.5515 265.544C65.548 266.469 66.4225 267.516 67.1538 268.662C67.2587 268.833 67.3445 269.005 67.4398 269.176C67.4398 270.082 67.5161 270.978 67.5351 271.883C67.6209 276.726 67.211 281.511 66.9346 286.334C66.8774 287.288 68.4121 287.288 68.5551 286.334C69.1742 282.048 69.4483 277.719 69.3749 273.39C69.3749 272.818 69.3749 272.255 69.3749 271.683C69.3749 271.493 69.4702 271.292 69.5274 271.102C69.9623 269.824 70.5513 268.605 71.2813 267.47C72.498 265.555 73.8252 263.712 75.2563 261.951C75.9712 261.064 76.6956 260.187 77.4296 259.31C77.4874 259.304 77.5429 259.285 77.5917 259.253C79.2245 258.158 80.9141 257.149 82.6533 256.231C84.2738 255.478 85.9419 254.84 87.5624 254.106C91.2161 252.547 94.4736 250.189 97.0947 247.204C97.1709 247.147 97.0756 246.937 97.0184 246.995Z" fill="black"/>
</svg>
