<svg width="20" height="20" viewBox="0 0 20 20" fill="none" xmlns="http://www.w3.org/2000/svg">
<path fill-rule="evenodd" clip-rule="evenodd" d="M6.25 1.875H13.75C13.9158 1.875 14.0747 1.94085 14.1919 2.05806C14.3092 2.17527 14.375 2.33424 14.375 2.5V17.5C14.375 17.6658 14.3092 17.8247 14.1919 17.9419C14.0747 18.0592 13.9158 18.125 13.75 18.125H6.25C6.08424 18.125 5.92527 18.0592 5.80806 17.9419C5.69085 17.8247 5.625 17.6658 5.625 17.5V2.5C5.625 2.33424 5.69085 2.17527 5.80806 2.05806C5.92527 1.94085 6.08424 1.875 6.25 1.875ZM3.75 2.5C3.75 1.83696 4.01339 1.20107 4.48223 0.732233C4.95107 0.263392 5.58696 0 6.25 0L13.75 0C14.413 0 15.0489 0.263392 15.5178 0.732233C15.9866 1.20107 16.25 1.83696 16.25 2.5V17.5C16.25 18.163 15.9866 18.7989 15.5178 19.2678C15.0489 19.7366 14.413 20 13.75 20H6.25C5.58696 20 4.95107 19.7366 4.48223 19.2678C4.01339 18.7989 3.75 18.163 3.75 17.5V2.5ZM10 16.25C10.3315 16.25 10.6495 16.1183 10.8839 15.8839C11.1183 15.6495 11.25 15.3315 11.25 15C11.25 14.6685 11.1183 14.3505 10.8839 14.1161C10.6495 13.8817 10.3315 13.75 10 13.75C9.66848 13.75 9.35054 13.8817 9.11612 14.1161C8.8817 14.3505 8.75 14.6685 8.75 15C8.75 15.3315 8.8817 15.6495 9.11612 15.8839C9.35054 16.1183 9.66848 16.25 10 16.25Z" fill="white"/>
</svg>
